# xmcd
#
# Track frame offsets: 
#        150
#        18826
#        38781
#        74482
#        96233
#        119184
#        137935
#        160961
#        184362
#        211213
#
# Disc length: 3139 seconds
#
# Revision: 3
# Processed by: cddbd v1.5.2PL0 Copyright (c) Steve Scherf et al.
# Submitted via: ExactAudioCopyFreeDBPlugin 1.0
#
DISCID=970c410a
DTITLE=Tadeusz Nalepa - Zerwany film
DYEAR=1999
DGENRE=Blues
TTITLE0=Jak od nowa żyć
TTITLE1=To ten trzeci raz
TTITLE2=Zerwany film
TTITLE3=Co to jest życie
TTITLE4=Od ciebie nie chcę nic
TTITLE5=Woda nie do picia
TTITLE6=ale wstyd
TTITLE7=Coś się tu nie zgadza
TTITLE8=Tak przez cały czas
TTITLE9=Co mogę jeszcze dać
EXTD=YEAR: 1999 ID3G: 0
EXTT0=
EXTT1=
EXTT2=
EXTT3=
EXTT4=
EXTT5=
EXTT6=
EXTT7=
EXTT8=
EXTT9=
PLAYORDER=
